<?xml version="1.0" encoding="UTF-8"?>
<svg width="60px" height="60px" viewBox="0 0 60 60" version="1.1" xmlns="http://www.w3.org/2000/svg" xmlns:xlink="http://www.w3.org/1999/xlink">
    <!-- Generator: Sketch 50 (54983) - http://www.bohemiancoding.com/sketch -->
    <title>Artboard Copy</title>
    <desc>Created with Sketch.</desc>
    <defs></defs>
    <g id="Artboard-Copy" stroke="none" stroke-width="1" fill="none" fill-rule="evenodd">
        <g id="商品图标" transform="translate(8.000000, 5.000000)">
            <path d="M4.48636364,13.9640779 L40.5131466,13.9640779 L44.5155163,46.1088952 C44.7518397,48.0069138 43.4047695,49.7371399 41.5067509,49.9734633 C41.364802,49.9911375 41.2218945,50 41.0788495,50 L3.92153449,50 C2.00886004,50 0.458331032,48.449471 0.458331032,46.5367965 C0.458331032,46.3937825 0.467189733,46.2509058 0.484856248,46.1089872 L4.48636364,13.9640779 Z" id="Rectangle-18" fill="#95B0FF"></path>
            <polygon id="Star" fill="#FFFFFF" points="22.9363636 36.1320516 18.8325539 37.9405184 19.2843066 33.478593 16.29626 30.1343615 20.6792683 29.1852067 22.9363636 25.3098912 25.193459 29.1852067 29.5764673 30.1343615 26.5884207 33.478593 27.0401734 37.9405184"></polygon>
            <path d="M30.2064229,20 L30.2064229,11.1753249 C30.2064229,7.16018207 26.9515065,3.90526567 22.9363636,3.90526567 C18.9212208,3.90526567 15.6663044,7.16018207 15.6663044,11.1753249 L15.6663044,20 L12.0312747,20 L12.0312747,12.8921509 C12.0312747,5.80095051 17.3591697,0.27012109 23.2881407,0.27012109 C29.2171117,0.27012109 33.8414525,5.80095051 33.8414525,12.8921509 L33.8414525,20 L30.2064229,20 Z" id="Combined-Shape" fill="#95B0FF"></path>
        </g>
    </g>
</svg>